<svg width="43" height="43" viewBox="0 0 43 43" fill="none" xmlns="http://www.w3.org/2000/svg">
<circle cx="21.0625" cy="21.7969" r="21" fill="white"/>
<g clip-path="url(#clip0_55_242)">
<path d="M33.3679 8.67188H8.75693C8.64937 8.67182 8.54286 8.69344 8.44347 8.73551C8.34408 8.77757 8.25378 8.83925 8.1777 8.91703C8.10163 8.99481 8.04128 9.08715 8.00011 9.1888C7.95894 9.29044 7.93774 9.39938 7.93774 9.5094V34.0835C7.93769 34.1936 7.95884 34.3026 7.99998 34.4043C8.04112 34.506 8.10146 34.5984 8.17753 34.6763C8.2536 34.7542 8.34393 34.8159 8.44334 34.858C8.54276 34.9002 8.64931 34.9219 8.75693 34.9219H33.3679C33.4755 34.9219 33.5821 34.9002 33.6815 34.858C33.7809 34.8159 33.8712 34.7541 33.9472 34.6763C34.0233 34.5984 34.0836 34.506 34.1247 34.4043C34.1659 34.3026 34.187 34.1936 34.1869 34.0835V9.50961C34.1869 9.39959 34.1658 9.29064 34.1246 9.18899C34.0835 9.08734 34.0231 8.99498 33.9471 8.91718C33.871 8.83938 33.7807 8.77768 33.6814 8.73559C33.582 8.6935 33.4755 8.67185 33.3679 8.67188Z" fill="#323232"/>
<path d="M21.7173 23.0776L20.8892 22.4198C20.637 22.2059 20.2921 21.9234 20.2921 21.4064C20.2921 20.8872 20.637 20.5572 20.9366 20.2516C21.9013 19.4749 22.865 18.6482 22.865 16.9061C22.865 15.1147 21.7631 14.1724 21.235 13.7253H22.6592L24.1537 12.7646H19.6255C18.383 12.7646 16.5925 13.0654 15.2816 14.1724C14.2936 15.0443 13.8116 16.2466 13.8116 17.3289C13.8116 19.1663 15.1907 21.0287 17.6262 21.0287C17.856 21.0287 18.1075 21.0057 18.3608 20.9815C18.247 21.2645 18.1321 21.5 18.1321 21.9002C18.1321 22.6299 18.4986 23.0772 18.8217 23.5011C17.7867 23.5738 15.855 23.6912 14.4312 24.5866C13.075 25.4115 12.6623 26.6121 12.6623 27.4598C12.6623 29.2042 14.2694 30.8291 17.6027 30.8291C21.5552 30.8291 23.6476 28.5919 23.6476 26.3773C23.6478 24.7503 22.7288 23.9494 21.7173 23.0776ZM18.7069 20.3687C16.7297 20.3687 15.8342 17.7541 15.8342 16.1764C15.8342 15.562 15.9479 14.928 16.339 14.4327C16.7076 13.961 17.3497 13.6549 17.9491 13.6549C19.8553 13.6549 20.8439 16.293 20.8439 17.9897C20.8439 18.4142 20.7981 19.1665 20.2696 19.7103C19.8997 20.0876 19.2812 20.3687 18.7069 20.3687ZM18.7296 29.8421C16.2708 29.8421 14.6853 28.6389 14.6853 26.966C14.6853 25.2935 16.1554 24.728 16.6613 24.5406C17.6262 24.2084 18.8675 24.1623 19.0745 24.1623C19.3041 24.1623 19.4193 24.1623 19.6022 24.1857C21.3499 25.4581 22.1088 26.0925 22.1088 27.2971C22.1088 28.7557 20.9364 29.8421 18.7296 29.8421ZM27.521 20.3328V17.9774H26.3838V20.3328H24.0849V21.5091H26.3838V23.879H27.521V21.5091H29.8316V20.3328H27.521Z" fill="white"/>
</g>
<defs>
<clipPath id="clip0_55_242">
<rect x="7.9375" y="8.67188" width="26.25" height="26.25" rx="13.125" fill="white"/>
</clipPath>
</defs>
</svg>
