<svg width="42" height="43" viewBox="0 0 42 43" fill="none" xmlns="http://www.w3.org/2000/svg">
<circle cx="21" cy="21.7969" r="21" fill="white"/>
<g clip-path="url(#clip0_55_221)">
<path d="M30.1695 18.0117C30.1265 17.0353 29.9686 16.3641 29.7424 15.7825C29.5091 15.1651 29.1501 14.6124 28.6798 14.1529C28.2203 13.6862 27.664 13.3236 27.0537 13.094C26.4688 12.8678 25.801 12.7099 24.8247 12.6669C23.8411 12.6202 23.5288 12.6094 21.0341 12.6094C18.5393 12.6094 18.2271 12.6202 17.2471 12.6632C16.2707 12.7063 15.5995 12.8643 15.018 13.0903C14.4005 13.3236 13.8478 13.6826 13.3883 14.1529C12.9217 14.6124 12.5592 15.1688 12.3294 15.779C12.1032 16.3641 11.9453 17.0317 11.9023 18.008C11.8556 18.9917 11.8448 19.3039 11.8448 21.7987C11.8448 24.2934 11.8556 24.6057 11.8986 25.5857C11.9417 26.562 12.0997 27.2332 12.3259 27.8148C12.5592 28.4322 12.9217 28.985 13.3883 29.4444C13.8478 29.9111 14.4042 30.2737 15.0144 30.5034C15.5995 30.7295 16.2671 30.8874 17.2436 30.9305C18.2234 30.9737 18.5358 30.9843 21.0306 30.9843C23.5253 30.9843 23.8376 30.9737 24.8176 30.9305C25.7939 30.8874 26.4651 30.7295 27.0466 30.5034C28.2815 30.0259 29.2578 29.0496 29.7353 27.8148C29.9613 27.2297 30.1193 26.562 30.1624 25.5857C30.2054 24.6057 30.2162 24.2934 30.2162 21.7987C30.2162 19.3039 30.2126 18.9917 30.1695 18.0117ZM28.5148 25.5139C28.4753 26.4113 28.3245 26.8959 28.1989 27.2189C27.8901 28.0194 27.2548 28.6547 26.4543 28.9635C26.1313 29.0891 25.6432 29.2399 24.7493 29.2793C23.7801 29.3225 23.4894 29.3331 21.0377 29.3331C18.586 29.3331 18.2917 29.3225 17.326 29.2793C16.4286 29.2399 15.944 29.0891 15.621 28.9635C15.2226 28.8163 14.86 28.583 14.5657 28.2778C14.2606 27.9799 14.0273 27.6209 13.88 27.2226C13.7544 26.8995 13.6037 26.4113 13.5643 25.5175C13.5211 24.5483 13.5104 24.2575 13.5104 21.8058C13.5104 19.3541 13.5211 19.0598 13.5643 18.0943C13.6037 17.1969 13.7544 16.7123 13.88 16.3892C14.0273 15.9907 14.2606 15.6283 14.5694 15.3338C14.8672 15.0287 15.2261 14.7954 15.6246 14.6483C15.9477 14.5226 16.4359 14.3719 17.3297 14.3324C18.2989 14.2893 18.5897 14.2785 21.0412 14.2785C23.4966 14.2785 23.7872 14.2893 24.7529 14.3324C25.6503 14.3719 26.1349 14.5226 26.458 14.6483C26.8563 14.7954 27.2189 15.0287 27.5132 15.3338C27.8183 15.6318 28.0517 15.9907 28.1989 16.3892C28.3245 16.7123 28.4753 17.2004 28.5148 18.0943C28.5579 19.0634 28.5686 19.3541 28.5686 21.8058C28.5686 24.2575 28.5579 24.5447 28.5148 25.5139Z" fill="#292929"/>
<path d="M21.034 17.0784C18.4281 17.0784 16.3137 19.1926 16.3137 21.7987C16.3137 24.4047 18.4281 26.5189 21.034 26.5189C23.6401 26.5189 25.7543 24.4047 25.7543 21.7987C25.7543 19.1926 23.6401 17.0784 21.034 17.0784ZM21.034 24.8606C19.3434 24.8606 17.9721 23.4894 17.9721 21.7987C17.9721 20.1079 19.3434 18.7367 21.034 18.7367C22.7247 18.7367 24.0959 20.1079 24.0959 21.7987C24.0959 23.4894 22.7247 24.8606 21.034 24.8606Z" fill="#292929"/>
<path d="M27.0431 16.8915C27.0431 17.5001 26.5496 17.9935 25.941 17.9935C25.3324 17.9935 24.839 17.5001 24.839 16.8915C24.839 16.2828 25.3324 15.7896 25.941 15.7896C26.5496 15.7896 27.0431 16.2828 27.0431 16.8915Z" fill="#292929"/>
</g>
<defs>
<clipPath id="clip0_55_221">
<rect width="18.375" height="18.375" fill="white" transform="translate(11.8125 12.6094)"/>
</clipPath>
</defs>
</svg>
