<svg width="20" height="19" viewBox="0 0 20 19" fill="none" xmlns="http://www.w3.org/2000/svg">
<g clip-path="url(#clip0_335_228)">
<path d="M19.1694 5.57125C19.1264 4.59491 18.9685 3.92369 18.7423 3.34207C18.509 2.72469 18.1501 2.17195 17.6798 1.71246C17.2203 1.24582 16.6639 0.883213 16.0537 0.653537C15.4687 0.427366 14.801 0.269481 13.8246 0.226434C12.841 0.179742 12.5288 0.168945 10.034 0.168945C7.53926 0.168945 7.227 0.179742 6.24702 0.222789C5.27069 0.265836 4.59947 0.423861 4.01798 0.649891C3.40047 0.883213 2.84773 1.24217 2.38824 1.71246C1.9216 2.17195 1.55913 2.72834 1.32932 3.33856C1.10315 3.92369 0.945262 4.59126 0.902216 5.5676C0.855523 6.55123 0.844727 6.86349 0.844727 9.35824C0.844727 11.853 0.855523 12.1653 0.89857 13.1452C0.941617 14.1216 1.09964 14.7928 1.32581 15.3744C1.55913 15.9918 1.9216 16.5445 2.38824 17.004C2.84773 17.4707 3.40411 17.8333 4.01434 18.0629C4.59947 18.2891 5.26704 18.447 6.24351 18.49C7.22335 18.5332 7.53576 18.5439 10.0305 18.5439C12.5253 18.5439 12.8375 18.5332 13.8175 18.49C14.7938 18.447 15.465 18.2891 16.0465 18.0629C17.2814 17.5855 18.2578 16.6092 18.7352 15.3744C18.9612 14.7893 19.1192 14.1216 19.1623 13.1452C19.2053 12.1653 19.2161 11.853 19.2161 9.35824C19.2161 6.86349 19.2125 6.55123 19.1694 5.57125ZM17.5147 13.0734C17.4752 13.9708 17.3245 14.4554 17.1988 14.7785C16.8901 15.579 16.2548 16.2143 15.4542 16.5231C15.1312 16.6487 14.6431 16.7994 13.7492 16.8388C12.78 16.882 12.4894 16.8927 10.0377 16.8927C7.58595 16.8927 7.29164 16.882 6.32596 16.8388C5.42857 16.7994 4.94398 16.6487 4.62092 16.5231C4.22256 16.3758 3.85996 16.1425 3.56564 15.8374C3.26053 15.5394 3.02721 15.1805 2.87998 14.7821C2.75435 14.4591 2.60361 13.9708 2.56421 13.0771C2.52102 12.1079 2.51037 11.8171 2.51037 9.36539C2.51037 6.91369 2.52102 6.61937 2.56421 5.65383C2.60361 4.75644 2.75435 4.27185 2.87998 3.94879C3.02721 3.55029 3.26053 3.18783 3.56929 2.89337C3.86711 2.58826 4.22607 2.35494 4.62456 2.20785C4.94763 2.08221 5.43586 1.93148 6.32961 1.89194C7.29879 1.84889 7.5896 1.83809 10.0412 1.83809C12.4965 1.83809 12.7872 1.84889 13.7529 1.89194C14.6502 1.93148 15.1348 2.08221 15.4579 2.20785C15.8563 2.35494 16.2189 2.58826 16.5132 2.89337C16.8183 3.19133 17.0516 3.55029 17.1988 3.94879C17.3245 4.27185 17.4752 4.75995 17.5147 5.65383C17.5578 6.62302 17.5686 6.91369 17.5686 9.36539C17.5686 11.8171 17.5578 12.1043 17.5147 13.0734Z" fill="#323232"/>
<path d="M10.034 4.6377C7.42806 4.6377 5.31372 6.7519 5.31372 9.35798C5.31372 11.9641 7.42806 14.0783 10.034 14.0783C12.6401 14.0783 14.7543 11.9641 14.7543 9.35798C14.7543 6.7519 12.6401 4.6377 10.034 4.6377ZM10.034 12.4199C8.3434 12.4199 6.97207 11.0487 6.97207 9.35798C6.97207 7.66724 8.3434 6.29605 10.034 6.29605C11.7247 6.29605 13.0959 7.66724 13.0959 9.35798C13.0959 11.0487 11.7247 12.4199 10.034 12.4199Z" fill="#323232"/>
<path d="M16.0431 4.45109C16.0431 5.05964 15.5496 5.55307 14.941 5.55307C14.3324 5.55307 13.839 5.05964 13.839 4.45109C13.839 3.84241 14.3324 3.34912 14.941 3.34912C15.5496 3.34912 16.0431 3.84241 16.0431 4.45109Z" fill="#323232"/>
</g>
<defs>
<clipPath id="clip0_335_228">
<rect width="18.375" height="18.375" fill="white" transform="translate(0.8125 0.168945)"/>
</clipPath>
</defs>
</svg>
