<svg width="43" height="43" viewBox="0 0 43 43" fill="none" xmlns="http://www.w3.org/2000/svg">
<circle cx="21.375" cy="21.7969" r="21" fill="white"/>
<path d="M20.0365 19.9593V19.2432C19.7879 19.2039 19.5369 19.1823 19.2852 19.1787C16.8491 19.1735 14.6923 20.7522 13.9607 23.0759C13.2291 25.3996 14.0927 27.9291 16.0923 29.3205C15.359 28.5357 14.8686 27.5555 14.6801 26.4981C14.4917 25.4407 14.6133 24.3514 15.0303 23.3616C15.4473 22.3719 16.1419 21.524 17.0302 20.9202C17.9185 20.3165 18.9625 19.9828 20.0363 19.9594L20.0365 19.9593Z" fill="#636363"/>
<path d="M20.1718 28.0703C21.5339 28.0684 22.6535 26.9954 22.7131 25.6346V13.4915H24.9315C24.8862 13.2378 24.8646 12.9804 24.867 12.7227L21.8327 12.7227V24.854C21.7822 26.2217 20.6599 27.3051 19.2913 27.3072C18.8824 27.3038 18.4801 27.2032 18.1176 27.0138C18.3525 27.3393 18.661 27.6047 19.018 27.7883C19.375 27.9719 19.7704 28.0685 20.1718 28.0703ZM29.0751 17.6115V16.9366C28.2586 16.9369 27.4603 16.696 26.7803 16.2441C27.3764 16.9371 28.1819 17.4171 29.0751 17.6115Z" fill="#636363"/>
<path d="M26.7799 16.2441C26.11 15.4813 25.7407 14.5008 25.741 13.4856H24.931C25.0357 14.0469 25.2535 14.5809 25.5714 15.0552C25.8893 15.5295 26.3005 15.934 26.7799 16.2441ZM19.2851 22.2129C18.717 22.2158 18.1662 22.4085 17.7202 22.7604C17.2742 23.1123 16.9587 23.6032 16.8237 24.1551C16.6888 24.7069 16.7422 25.288 16.9755 25.806C17.2088 26.324 17.6085 26.7491 18.1112 27.0138C17.8364 26.6344 17.6718 26.1863 17.6356 25.7192C17.5995 25.2521 17.6932 24.784 17.9064 24.3668C18.1195 23.9496 18.4439 23.5994 18.8436 23.355C19.2433 23.1105 19.7028 22.9814 20.1714 22.9817C20.4261 22.9851 20.679 23.0247 20.9225 23.0995V20.012C20.6738 19.9747 20.4228 19.9551 20.1714 19.9534H20.0363V22.3009C19.7915 22.2353 19.5384 22.2056 19.2851 22.2129Z" fill="#636363"/>
<path d="M29.0745 17.6113V19.959C27.5631 19.9561 26.0909 19.4776 24.8664 18.5915V24.7599C24.8599 27.8378 22.3629 30.3296 19.285 30.3296C18.1418 30.3317 17.0262 29.979 16.092 29.3202C16.8538 30.1395 17.8447 30.7105 18.9356 30.9587C20.0264 31.2068 21.1668 31.1208 22.2081 30.7116C23.2493 30.3025 24.1432 29.5893 24.7734 28.6649C25.4035 27.7404 25.7407 26.6477 25.7409 25.5289V19.378C26.9695 20.2583 28.4435 20.7305 29.9549 20.7279V17.705C29.659 17.7041 29.364 17.6727 29.0745 17.6113Z" fill="#636363"/>
<path d="M24.866 24.7601V18.5917C26.0942 19.4728 27.5685 19.9451 29.08 19.9416V17.594C28.187 17.4054 27.3796 16.9316 26.7794 16.2441C26.3 15.934 25.8888 15.5295 25.5709 15.0552C25.2531 14.5809 25.0352 14.0469 24.9305 13.4856H22.7122V25.6348C22.6906 26.1636 22.5048 26.6726 22.1806 27.0909C21.8564 27.5093 21.41 27.8163 20.9033 27.9693C20.3966 28.1222 19.8548 28.1136 19.3533 27.9445C18.8518 27.7754 18.4154 27.4542 18.1048 27.0257C17.602 26.761 17.2022 26.3359 16.9689 25.8179C16.7355 25.2998 16.6821 24.7187 16.817 24.1668C16.952 23.6149 17.2675 23.124 17.7136 22.7721C18.1596 22.4201 18.7105 22.2275 19.2786 22.2246C19.5334 22.2269 19.7865 22.2665 20.0299 22.3421V19.9944C18.9503 20.0127 17.8994 20.3447 17.0053 20.95C16.1112 21.5552 15.4125 22.4075 14.9944 23.403C14.5763 24.3984 14.4569 25.4941 14.6507 26.5562C14.8445 27.6184 15.3431 28.6012 16.0859 29.3849C17.0292 30.022 18.1464 30.352 19.2846 30.3298C22.3625 30.3298 24.8595 27.838 24.866 24.7601Z" fill="#292929"/>
</svg>
