<svg width="17" height="19" viewBox="0 0 17 19" fill="none" xmlns="http://www.w3.org/2000/svg">
<path d="M6.66136 7.42756V6.71151C6.4128 6.67215 6.16175 6.65059 5.91012 6.64699C3.47396 6.64178 1.31718 8.22049 0.585599 10.5442C-0.145979 12.8679 0.717564 15.3974 2.71719 16.7887C1.98392 16.004 1.49347 15.0237 1.30502 13.9664C1.11658 12.909 1.2382 11.8197 1.65521 10.8299C2.07222 9.84013 2.76679 8.99221 3.65508 8.3885C4.54338 7.78478 5.58742 7.45107 6.6612 7.42764L6.66136 7.42756Z" fill="#323232"/>
<path d="M6.79667 15.5385C8.15874 15.5367 9.27833 14.4636 9.33797 13.1029V0.959794H11.5564C11.5111 0.706053 11.4895 0.448655 11.4918 0.190918L8.45753 0.190918V12.3223C8.40707 13.69 7.28479 14.7733 5.91622 14.7755C5.50724 14.772 5.10493 14.6715 4.74243 14.4821C4.97738 14.8076 5.28592 15.073 5.64291 15.2565C5.99991 15.4401 6.39524 15.5368 6.79667 15.5385ZM15.6999 5.07981V4.40487C14.8835 4.40519 14.0851 4.16427 13.4052 3.71237C14.0012 4.40535 14.8068 4.88536 15.6999 5.07981Z" fill="#323232"/>
<path d="M13.4047 3.71212C12.7348 2.94935 12.3656 1.96878 12.3659 0.953613H11.5559C11.6605 1.51489 11.8784 2.04896 12.1963 2.52323C12.5142 2.9975 12.9253 3.40203 13.4047 3.71212ZM5.90993 9.68095C5.34185 9.68384 4.79104 9.87655 4.34506 10.2285C3.89909 10.5804 3.58355 11.0712 3.44862 11.6231C3.31369 12.1749 3.36711 12.756 3.60039 13.274C3.83366 13.792 4.2334 14.2171 4.73606 14.4818C4.46124 14.1024 4.29666 13.6543 4.26051 13.1872C4.22437 12.7201 4.31806 12.252 4.53123 11.8348C4.74441 11.4176 5.06877 11.0674 5.46849 10.823C5.8682 10.5786 6.3277 10.4494 6.79623 10.4497C7.05094 10.4531 7.30388 10.4927 7.54739 10.5675V7.48004C7.2987 7.44276 7.04769 7.42315 6.79623 7.42137H6.66118V9.76895C6.41637 9.70329 6.16329 9.67364 5.90993 9.68095Z" fill="#323232"/>
<path d="M15.6993 5.07959V7.42725C14.1878 7.42431 12.7156 6.94588 11.4912 6.05974V12.2281C11.4847 15.3061 8.98766 17.7979 5.90972 17.7979C4.76659 17.8 3.65098 17.4472 2.7168 16.7884C3.47857 17.6078 4.46943 18.1787 5.56031 18.4269C6.6512 18.6751 7.79154 18.589 8.83281 18.1799C9.87408 17.7708 10.768 17.0575 11.3981 16.1331C12.0283 15.2087 12.3654 14.1159 12.3657 12.9972V6.84625C13.5942 7.72656 15.0683 8.19874 16.5796 8.19613V5.17328C16.2837 5.1724 15.9887 5.141 15.6993 5.07959Z" fill="#323232"/>
<path d="M11.4908 12.2281V6.05971C12.7189 6.94081 14.1932 7.41308 15.7047 7.40959V5.06201C14.8118 4.87342 14.0043 4.39965 13.4041 3.71212C12.9247 3.40203 12.5135 2.9975 12.1957 2.52323C11.8778 2.04896 11.6599 1.51489 11.5553 0.953613H9.33692V13.1028C9.31532 13.6316 9.12952 14.1406 8.80535 14.559C8.48117 14.9773 8.03471 15.2843 7.52803 15.4373C7.02134 15.5903 6.47959 15.5816 5.97806 15.4125C5.47653 15.2434 5.04013 14.9222 4.72952 14.4937C4.22677 14.229 3.82695 13.8039 3.59361 13.2859C3.36028 12.7679 3.30683 12.1867 3.44177 11.6348C3.57671 11.0829 3.89229 10.592 4.33832 10.2401C4.78436 9.88816 5.33525 9.69547 5.90339 9.69265C6.15819 9.69493 6.41129 9.73449 6.65463 9.81007V7.46241C5.57508 7.48071 4.52418 7.81273 3.63006 8.41797C2.73594 9.02321 2.03724 9.87552 1.61915 10.871C1.20105 11.8665 1.08162 12.9621 1.27543 14.0242C1.46924 15.0864 1.9679 16.0692 2.71063 16.8529C3.65399 17.49 4.77118 17.8201 5.90932 17.7979C8.98726 17.7979 11.4843 15.306 11.4908 12.2281Z" fill="#323232"/>
</svg>
