<svg width="43" height="43" viewBox="0 0 43 43" fill="none" xmlns="http://www.w3.org/2000/svg">
<circle cx="21.6875" cy="21.7969" r="21" fill="white"/>
<g clip-path="url(#clip0_55_227)">
<path d="M30.875 16.0995C30.1917 16.3992 29.4636 16.5979 28.7045 16.6944C29.4854 16.2281 30.0814 15.4954 30.3616 14.6122C29.6335 15.0464 28.8296 15.353 27.9729 15.5241C27.2815 14.788 26.2962 14.332 25.2212 14.332C23.1357 14.332 21.4567 16.0248 21.4567 18.1001C21.4567 18.3986 21.4819 18.6858 21.5439 18.9591C18.4122 18.8063 15.641 17.3053 13.7794 15.0188C13.4544 15.5827 13.2637 16.2281 13.2637 16.9229C13.2637 18.2275 13.9355 19.384 14.937 20.0535C14.3318 20.0421 13.738 19.8664 13.235 19.5896C13.235 19.6011 13.235 19.616 13.235 19.6309C13.235 21.4615 14.5408 22.9821 16.2531 23.3323C15.9465 23.4162 15.6123 23.4564 15.2654 23.4564C15.0243 23.4564 14.7808 23.4426 14.5523 23.3921C15.0403 24.8839 16.4254 25.9806 18.0722 26.0162C16.7906 27.0188 15.1632 27.6229 13.4015 27.6229C13.0926 27.6229 12.7963 27.6091 12.5 27.5712C14.1687 28.6473 16.1463 29.2617 18.2789 29.2617C25.2109 29.2617 29.0007 23.5195 29.0007 18.5422C29.0007 18.3757 28.995 18.2149 28.987 18.0553C29.7346 17.5247 30.3628 16.862 30.875 16.0995Z" fill="#292929"/>
</g>
<defs>
<clipPath id="clip0_55_227">
<rect width="18.375" height="18.375" fill="white" transform="translate(12.5 12.6094)"/>
</clipPath>
</defs>
</svg>
