<svg width="19" height="14" viewBox="0 0 19 14" fill="none" xmlns="http://www.w3.org/2000/svg">
<path d="M7.97909 9.5933L12.7366 6.8433L7.97909 4.0933V9.5933ZM18.5758 2.4158C18.6949 2.84664 18.7774 3.42414 18.8324 4.15747C18.8966 4.8908 18.9241 5.5233 18.9241 6.0733L18.9791 6.8433C18.9791 8.8508 18.8324 10.3266 18.5758 11.2708C18.3466 12.0958 17.8149 12.6275 16.9899 12.8566C16.5591 12.9758 15.7708 13.0583 14.5608 13.1133C13.3691 13.1775 12.2783 13.205 11.2699 13.205L9.81242 13.26C5.97159 13.26 3.57909 13.1133 2.63492 12.8566C1.80992 12.6275 1.27825 12.0958 1.04909 11.2708C0.929919 10.84 0.847419 10.2625 0.792419 9.52914C0.728252 8.7958 0.700752 8.1633 0.700752 7.6133L0.645752 6.8433C0.645752 4.8358 0.792419 3.35997 1.04909 2.4158C1.27825 1.5908 1.80992 1.05914 2.63492 0.829969C3.06575 0.710802 3.85409 0.628302 5.06409 0.573302C6.25575 0.509136 7.34659 0.481636 8.35492 0.481636L9.81242 0.426636C13.6533 0.426636 16.0458 0.573302 16.9899 0.829969C17.8149 1.05914 18.3466 1.5908 18.5758 2.4158Z" fill="#323232"/>
</svg>
