<svg width="254" height="16" viewBox="0 0 254 16" fill="none" xmlns="http://www.w3.org/2000/svg">
<path d="M0.295166 15.7611V11.2625C0.297911 10.3331 0.587417 9.42713 1.12416 8.66834C1.66091 7.90954 2.41875 7.33488 3.29423 7.02278C3.77553 6.85116 4.28277 6.76359 4.79376 6.76392H11.844C12.4241 6.75914 12.9793 6.5273 13.3906 6.11809C13.8019 5.70888 14.0365 5.15485 14.0443 4.57472V4.54144C14.0385 3.96002 13.8047 3.40411 13.3932 2.99331C12.9817 2.58251 12.4254 2.34965 11.844 2.34484H0.295166V0.0557863H11.844C12.3549 0.0556401 12.8621 0.143197 13.3435 0.314645C14.1914 0.615516 14.9296 1.16371 15.4627 1.88841C15.9959 2.61311 16.2995 3.48103 16.3343 4.38004C16.3691 5.27905 16.1336 6.16786 15.6582 6.93164C15.1827 7.69543 14.4891 8.2991 13.6671 8.66469L13.6227 8.68503L13.5376 8.72016L16.3426 15.7611H13.8779L11.1968 9.05298H4.79376C4.21039 9.05292 3.65047 9.28262 3.23521 9.69235C2.81994 10.1021 2.58275 10.6589 2.57497 11.2422V15.7611H0.295166Z" fill="black"/>
<path d="M21.2433 0.0557861V15.7611H18.9561V0.0557861H21.2433Z" fill="black"/>
<path d="M23.8506 13.4721H34.1014C35.028 13.4682 35.9155 13.0984 36.5708 12.4431C37.226 11.7879 37.5958 10.9004 37.5997 9.97377V5.83573C37.5958 4.90913 37.226 4.02158 36.5708 3.36637C35.9155 2.71115 35.028 2.34133 34.1014 2.33744H23.8506V0.0557861H34.1014C35.6335 0.0606503 37.1016 0.670934 38.1857 1.75362C39.2697 2.83631 39.8819 4.30362 39.8887 5.83573V9.96638C39.8839 11.4998 39.2726 12.969 38.1883 14.0533C37.104 15.1375 35.6348 15.7488 34.1014 15.7537H23.8506V13.4721Z" fill="black"/>
<path d="M59.6963 12.9118C59.6959 13.6673 59.3955 14.3917 58.8613 14.926C58.327 15.4602 57.6026 15.7606 56.8471 15.7611H48.301C46.7676 15.7562 45.2984 15.1449 44.2141 14.0606C43.1299 12.9763 42.5185 11.5071 42.5137 9.97372V5.83568C42.5185 4.30228 43.1299 2.83308 44.2141 1.7488C45.2984 0.664517 46.7676 0.0532156 48.301 0.0483398H58.6812V2.34479H48.301C47.3754 2.34818 46.4885 2.71677 45.8331 3.37044C45.1776 4.02411 44.8067 4.91004 44.8009 5.83568V9.96633C44.8048 10.8933 45.1748 11.7811 45.8305 12.4363C46.4861 13.0916 47.3741 13.4612 48.301 13.4646H56.4162C56.6791 13.4646 56.9312 13.3602 57.117 13.1743C57.3029 12.9885 57.4073 12.7364 57.4073 12.4736V9.77403H51.1041V7.48498H59.6963V12.9118Z" fill="black"/>
<path d="M62.2988 0.0557861H78.3388V2.34484H62.2988V0.0557861ZM62.2988 11.2625C62.302 10.3329 62.5919 9.42693 63.1289 8.66816C63.666 7.9094 64.4241 7.3348 65.2997 7.02278C65.7804 6.85101 66.287 6.76344 66.7974 6.76393H78.3388V9.05298H66.7974C66.2141 9.05293 65.6541 9.28262 65.2389 9.69235C64.8236 10.1021 64.5864 10.6589 64.5786 11.2422V11.2829C64.5864 11.8662 64.8236 12.423 65.2389 12.8327C65.6541 13.2424 66.2141 13.4721 66.7974 13.4721H78.3388V15.7611H66.7974C66.1854 15.7618 65.5798 15.6359 65.0187 15.3913L64.9743 15.3728C64.0932 14.978 63.3611 14.3121 62.885 13.4721C62.5015 12.7988 62.2995 12.0374 62.2988 11.2625Z" fill="black"/>
<path d="M93.4405 0V15.7053H91.1533V0H93.4405Z" fill="black"/>
<path d="M96.0449 2.8493C96.0449 2.47512 96.1186 2.10461 96.2618 1.75892C96.405 1.41322 96.6149 1.09912 96.8795 0.83454C97.144 0.569959 97.4581 0.360081 97.8038 0.21689C98.1495 0.0737 98.52 2.27572e-07 98.8942 2.27572e-07H99.8076C100.433 -0.000217279 101.048 0.155484 101.597 0.453002C102.367 0.869025 102.842 1.43851 103.252 2.2003C103.332 2.34822 103.408 2.49799 103.48 2.65145C103.552 2.80492 103.598 2.90846 103.665 3.03789L103.803 3.35222L107.435 11.4083L107.577 11.73C107.629 11.8446 107.679 11.9574 107.732 12.0684C107.786 12.1793 107.845 12.3013 107.906 12.4141C108.057 12.7575 108.312 13.0448 108.635 13.2351C108.849 13.3539 109.09 13.4174 109.335 13.42H109.672C109.974 13.4195 110.263 13.2993 110.477 13.0858C110.69 12.8723 110.81 12.5829 110.811 12.281V2.27572e-07H113.1V12.8542C113.1 13.6099 112.799 14.3345 112.265 14.8691C111.731 15.4036 111.006 15.7043 110.251 15.7053H109.335C108.711 15.7045 108.096 15.5488 107.546 15.2523C106.776 14.8363 106.303 14.265 105.893 13.505C105.813 13.3571 105.737 13.2055 105.665 13.0539C105.593 12.9023 105.545 12.7969 105.48 12.6656C105.416 12.5343 105.388 12.4566 105.34 12.3531L101.705 4.29151L101.56 3.96978C101.511 3.857 101.459 3.74421 101.407 3.63142C101.355 3.51863 101.294 3.40029 101.233 3.28751C101.083 2.94356 100.828 2.65569 100.505 2.46471C100.289 2.34884 100.047 2.28847 99.8021 2.28905H99.4674C99.1652 2.28905 98.8753 2.40899 98.6614 2.62254C98.4475 2.83608 98.3271 3.12578 98.3266 3.42803V15.7053H96.0449V2.8493Z" fill="black"/>
<path d="M115.729 13.4163H125.98C126.907 13.4129 127.795 13.0433 128.451 12.388C129.106 11.7327 129.477 10.8449 129.48 9.91799V5.78734C129.477 4.86042 129.106 3.97259 128.451 3.31733C127.795 2.66206 126.907 2.29246 125.98 2.28905H115.729V0H125.98C127.514 0.00487571 128.983 0.616177 130.067 1.70046C131.151 2.78474 131.763 4.25394 131.768 5.78734V9.91799C131.763 11.4514 131.151 12.9206 130.067 14.0049C128.983 15.0892 127.514 15.7005 125.98 15.7053H115.729V13.4163Z" fill="black"/>
<path d="M151.952 0V9.91799C151.948 11.4514 151.336 12.9206 150.252 14.0049C149.168 15.0892 147.698 15.7005 146.165 15.7053H140.18C138.647 15.7005 137.177 15.0892 136.093 14.0049C135.009 12.9206 134.397 11.4514 134.393 9.91799V0H136.68V9.91799C136.684 10.8449 137.054 11.7327 137.709 12.388C138.365 13.0433 139.253 13.4129 140.18 13.4163H146.165C147.092 13.4134 147.981 13.044 148.637 12.3886C149.293 11.7333 149.663 10.8452 149.667 9.91799V0H151.952Z" fill="black"/>
<path d="M157.116 7.42555C156.268 7.12321 155.553 6.53108 155.099 5.75354C154.644 4.97599 154.479 4.06295 154.632 3.17532C154.784 2.2877 155.245 1.48247 155.934 0.901572C156.622 0.320674 157.493 0.00139266 158.394 0H170.612V2.28905H158.394C158.034 2.28968 157.685 2.41695 157.41 2.64857C157.134 2.8802 156.948 3.20143 156.886 3.55604C156.823 3.91066 156.887 4.27607 157.066 4.58833C157.245 4.90058 157.529 5.13978 157.867 5.26408L157.898 5.27517L168.976 8.24465L169.081 8.28163C169.932 8.58206 170.649 9.17367 171.105 9.95179C171.561 10.7299 171.728 11.6444 171.575 12.5334C171.422 13.4224 170.959 14.2287 170.269 14.8095C169.579 15.3903 168.706 15.7083 167.804 15.7072H155.584V13.4181H167.802C168.163 13.4206 168.513 13.2955 168.792 13.0649C169.07 12.8343 169.257 12.513 169.322 12.1575C169.387 11.8021 169.324 11.4353 169.144 11.1217C168.965 10.808 168.681 10.5678 168.342 10.4431L168.308 10.432L157.231 7.46253L157.116 7.42555Z" fill="black"/>
<path d="M181.637 2.28905H174.258V0H191.311V2.28905H183.924V15.7053H181.637V2.28905Z" fill="black"/>
<path d="M193.937 15.7053V11.2067C193.94 10.2778 194.231 9.3726 194.768 8.61457C195.305 7.85653 196.062 7.2825 196.937 6.9707C197.418 6.79892 197.925 6.71135 198.435 6.71184H205.478C206.06 6.70947 206.617 6.4787 207.031 6.06923C207.444 5.65976 207.68 5.10435 207.687 4.52263V4.48011C207.679 3.89871 207.443 3.34377 207.03 2.9347C206.617 2.52563 206.059 2.29511 205.478 2.29275H193.937V2.00987e-06H205.478C205.988 -0.00048375 206.495 0.0870855 206.976 0.25886C207.824 0.559318 208.562 1.10725 209.095 1.83181C209.629 2.55638 209.932 3.42427 209.967 4.32327C210.002 5.22228 209.766 6.11107 209.291 6.87474C208.815 7.63842 208.121 8.24186 207.299 8.60706L207.255 8.62739L207.17 8.66437L209.975 15.7053H207.512L204.84 9.00459H198.435C197.851 9.00454 197.291 9.2345 196.876 9.64462C196.461 10.0547 196.224 10.612 196.216 11.1956V15.7146L193.937 15.7053Z" fill="black"/>
<path d="M214.887 0V15.7053H212.598V0H214.887Z" fill="black"/>
<path d="M217.493 0H233.531V2.28905H217.493V0ZM217.493 11.2067C217.497 10.2778 217.787 9.3726 218.324 8.61456C218.861 7.85653 219.619 7.2825 220.494 6.9707C220.974 6.79892 221.481 6.71135 221.992 6.71184H233.531V9.00459H221.992C221.408 9.00454 220.848 9.23449 220.432 9.64462C220.017 10.0547 219.78 10.612 219.773 11.1956V11.2234C219.78 11.8067 220.018 12.3635 220.433 12.7732C220.848 13.1829 221.408 13.4126 221.992 13.4126H233.531V15.7016H221.992C221.38 15.7014 220.774 15.5755 220.213 15.3318L220.168 15.3133C219.287 14.9185 218.555 14.2526 218.079 13.4126C217.696 12.7406 217.494 11.9804 217.493 11.2067Z" fill="black"/>
<path d="M238.699 7.42555C237.851 7.12321 237.136 6.53108 236.682 5.75354C236.227 4.97599 236.062 4.06295 236.215 3.17532C236.367 2.2877 236.828 1.48247 237.517 0.901572C238.205 0.320674 239.076 0.00139266 239.977 0H252.195V2.28905H239.977C239.617 2.28968 239.268 2.41695 238.993 2.64857C238.717 2.8802 238.531 3.20143 238.469 3.55604C238.406 3.91066 238.47 4.27607 238.649 4.58833C238.828 4.90058 239.112 5.13978 239.45 5.26408L239.481 5.27517L250.559 8.24465L250.664 8.28163C251.515 8.58206 252.232 9.17367 252.688 9.95179C253.144 10.7299 253.311 11.6444 253.158 12.5334C253.005 13.4224 252.542 14.2287 251.852 14.8095C251.162 15.3903 250.289 15.7083 249.387 15.7072H237.17V13.4181H249.387C249.747 13.4179 250.096 13.291 250.372 13.0595C250.648 12.828 250.834 12.5068 250.897 12.152C250.96 11.7973 250.896 11.4317 250.717 11.1193C250.537 10.8068 250.253 10.5674 249.915 10.4431L249.884 10.432L238.805 7.46253L238.699 7.42555Z" fill="black"/>
</svg>
