<svg width="180" height="50" viewBox="0 0 180 50" fill="none" xmlns="http://www.w3.org/2000/svg">
<g clip-path="url(#clip0_55_28)">
<path d="M48.4355 20.7609V17.1185C48.4378 16.366 48.6722 15.6325 49.1068 15.0181C49.5413 14.4038 50.1549 13.9385 50.8638 13.6858C51.2535 13.5469 51.6641 13.476 52.0779 13.4762H57.7861C58.2559 13.4723 58.7054 13.2846 59.0384 12.9533C59.3714 12.622 59.5614 12.1734 59.5676 11.7037V11.6768C59.5629 11.206 59.3736 10.7559 59.0405 10.4233C58.7073 10.0907 58.2569 9.90217 57.7861 9.89827H48.4355V8.04492H57.7861C58.1998 8.0448 58.6105 8.11569 59.0002 8.25451C59.6867 8.49811 60.2844 8.94196 60.7161 9.52872C61.1477 10.1155 61.3936 10.8182 61.4218 11.5461C61.45 12.274 61.2593 12.9936 60.8743 13.612C60.4894 14.2304 59.9278 14.7192 59.2622 15.0152L59.2263 15.0317L59.1574 15.0601L61.4284 20.7609H59.4329L57.2622 15.3296H52.0779C51.6055 15.3295 51.1522 15.5155 50.816 15.8472C50.4798 16.179 50.2877 16.6298 50.2814 17.1021V20.7609H48.4355Z" fill="black"/>
<path d="M65.3968 8.04492V20.7609H63.5449V8.04492H65.3968Z" fill="black"/>
<path d="M67.5081 18.9075H75.8077C76.5579 18.9044 77.2765 18.6049 77.807 18.0744C78.3375 17.5439 78.637 16.8253 78.6401 16.0751V12.7247C78.637 11.9745 78.3375 11.2559 77.807 10.7254C77.2765 10.1949 76.5579 9.89543 75.8077 9.89228H67.5081V8.04492H75.8077C77.0482 8.04886 78.2368 8.54298 79.1146 9.41959C79.9923 10.2962 80.4879 11.4842 80.4935 12.7247V16.0691C80.4895 17.3106 79.9946 18.5002 79.1167 19.3781C78.2388 20.256 77.0492 20.7509 75.8077 20.7549H67.5081V18.9075Z" fill="black"/>
<path d="M96.5303 18.454C96.5299 19.0658 96.2867 19.6523 95.8541 20.0849C95.4216 20.5174 94.835 20.7606 94.2233 20.761H87.3039C86.0624 20.7571 84.8729 20.2621 83.995 19.3842C83.1171 18.5063 82.6221 17.3168 82.6182 16.0752V12.7248C82.6221 11.4833 83.1171 10.2938 83.995 9.41585C84.8729 8.53796 86.0624 8.04301 87.3039 8.03906H95.7084V9.8984H87.3039C86.5545 9.90115 85.8364 10.1996 85.3057 10.7288C84.7751 11.2581 84.4747 11.9754 84.47 12.7248V16.0692C84.4732 16.8197 84.7728 17.5386 85.3036 18.0691C85.8344 18.5997 86.5534 18.8989 87.3039 18.9017H93.8745C94.0873 18.9017 94.2914 18.8171 94.4419 18.6666C94.5924 18.5162 94.6769 18.3121 94.6769 18.0992V15.9136H89.5735V14.0602H96.5303V18.454Z" fill="black"/>
<path d="M98.6377 8.04492H111.625V9.89827H98.6377V8.04492ZM98.6377 17.1185C98.6402 16.3659 98.875 15.6323 99.3098 15.018C99.7446 14.4037 100.358 13.9384 101.067 13.6858C101.457 13.5467 101.867 13.4758 102.28 13.4762H111.625V15.3296H102.28C101.808 15.3295 101.354 15.5155 101.018 15.8472C100.682 16.179 100.49 16.6298 100.484 17.1021V17.135C100.49 17.6073 100.682 18.0581 101.018 18.3898C101.354 18.7216 101.808 18.9076 102.28 18.9075H111.625V20.7609H102.28C101.784 20.7615 101.294 20.6595 100.84 20.4615L100.804 20.4465C100.09 20.1268 99.4978 19.5876 99.1123 18.9075C98.8018 18.3624 98.6383 17.7459 98.6377 17.1185Z" fill="black"/>
<path d="M50.2874 29.2373V41.9533H48.4355V29.2373H50.2874Z" fill="black"/>
<path d="M52.3965 31.5443C52.3965 31.2413 52.4562 30.9413 52.5721 30.6614C52.688 30.3815 52.858 30.1272 53.0722 29.913C53.2864 29.6988 53.5407 29.5288 53.8206 29.4129C54.1005 29.297 54.4005 29.2373 54.7034 29.2373H55.443C55.949 29.2371 56.4471 29.3632 56.8921 29.6041C57.5149 29.9409 57.8996 30.402 58.232 31.0188C58.2964 31.1386 58.3577 31.2598 58.4161 31.3841C58.4745 31.5083 58.5119 31.5922 58.5658 31.697L58.6781 31.9515L61.6183 38.4741L61.7336 38.7346C61.7755 38.8274 61.8159 38.9187 61.8593 39.0086C61.9028 39.0984 61.9507 39.1972 62.0001 39.2885C62.122 39.5665 62.3283 39.7991 62.5899 39.9532C62.7637 40.0494 62.9587 40.1008 63.1573 40.1029H63.4298C63.6742 40.1025 63.9085 40.0052 64.0814 39.8324C64.2543 39.6595 64.3515 39.4252 64.3519 39.1807V29.2373H66.2053V39.6448C66.2049 40.2567 65.9618 40.8434 65.5292 41.2762C65.0967 41.7089 64.5102 41.9525 63.8983 41.9533H63.1573C62.6514 41.9526 62.1535 41.8265 61.7081 41.5865C61.0854 41.2496 60.7021 40.7871 60.3698 40.1718C60.3054 40.052 60.244 39.9292 60.1856 39.8065C60.1273 39.6837 60.0883 39.5984 60.0359 39.4921C59.9835 39.3858 59.9611 39.3229 59.9222 39.2391L56.979 32.712L56.8622 32.4515C56.8218 32.3602 56.7798 32.2688 56.7379 32.1775C56.696 32.0862 56.6466 31.9904 56.5972 31.8991C56.4754 31.6206 56.269 31.3875 56.0074 31.2329C55.8325 31.1391 55.637 31.0902 55.4385 31.0907H55.1675C54.9228 31.0907 54.6881 31.1878 54.5149 31.3607C54.3417 31.5336 54.2442 31.7681 54.2438 32.0128V41.9533H52.3965V31.5443Z" fill="black"/>
<path d="M68.334 40.0999H76.6336C77.3841 40.0971 78.1031 39.7979 78.6339 39.2674C79.1648 38.7368 79.4644 38.018 79.4676 37.2675V33.9231C79.4644 33.1726 79.1648 32.4537 78.6339 31.9232C78.1031 31.3927 77.3841 31.0934 76.6336 31.0907H68.334V29.2373H76.6336C77.8752 29.2413 79.0647 29.7362 79.9426 30.6141C80.8205 31.492 81.3155 32.6815 81.3194 33.9231V37.2675C81.3155 38.509 80.8205 39.6986 79.9426 40.5765C79.0647 41.4544 77.8752 41.9493 76.6336 41.9533H68.334V40.0999Z" fill="black"/>
<path d="M97.6616 29.2373V37.2675C97.6576 38.509 97.1627 39.6986 96.2848 40.5765C95.4069 41.4544 94.2173 41.9493 92.9758 41.9533H88.1299C86.8883 41.9493 85.6988 41.4544 84.8209 40.5765C83.943 39.6986 83.448 38.509 83.4441 37.2675V29.2373H85.2959V37.2675C85.2991 38.018 85.5987 38.7368 86.1296 39.2674C86.6604 39.7979 87.3794 40.0971 88.1299 40.0999H92.9758C93.7266 40.0975 94.4459 39.7985 94.9771 39.2679C95.5082 38.7373 95.8081 38.0182 95.8112 37.2675V29.2373H97.6616Z" fill="black"/>
<path d="M101.843 35.2495C101.156 35.0047 100.578 34.5252 100.209 33.8957C99.8414 33.2662 99.7074 32.5269 99.8311 31.8082C99.9548 31.0896 100.328 30.4376 100.885 29.9673C101.443 29.4969 102.148 29.2384 102.877 29.2373H112.77V31.0907H102.877C102.586 31.0912 102.304 31.1942 102.08 31.3817C101.857 31.5693 101.707 31.8294 101.656 32.1165C101.605 32.4036 101.657 32.6995 101.802 32.9523C101.947 33.2051 102.177 33.3988 102.451 33.4994L102.476 33.5084L111.445 35.9127L111.53 35.9426C112.219 36.1858 112.799 36.6648 113.169 37.2949C113.538 37.9249 113.673 38.6653 113.549 39.3851C113.426 40.1049 113.051 40.7577 112.492 41.2279C111.933 41.6982 111.226 41.9557 110.496 41.9548H100.602V40.1014H110.494C110.787 40.1034 111.071 40.0021 111.296 39.8154C111.521 39.6287 111.673 39.3685 111.725 39.0807C111.778 38.793 111.727 38.496 111.581 38.242C111.436 37.9881 111.206 37.7936 110.932 37.6926L110.905 37.6837L101.936 35.2794L101.843 35.2495Z" fill="black"/>
<path d="M121.696 31.0907H115.722V29.2373H129.529V31.0907H123.548V41.9533H121.696V31.0907Z" fill="black"/>
<path d="M131.655 41.9533V38.3109C131.658 37.5588 131.893 36.8259 132.328 36.2122C132.763 35.5984 133.376 35.1336 134.085 34.8812C134.474 34.7421 134.884 34.6712 135.297 34.6716H141C141.471 34.6697 141.922 34.4828 142.257 34.1513C142.591 33.8198 142.782 33.3701 142.789 32.8991V32.8647C142.782 32.3939 142.591 31.9446 142.256 31.6134C141.922 31.2822 141.471 31.0956 141 31.0936H131.655V29.2373H141C141.413 29.2369 141.823 29.3078 142.212 29.4469C142.899 29.6902 143.497 30.1338 143.929 30.7204C144.36 31.3071 144.606 32.0098 144.635 32.7377C144.663 33.4656 144.472 34.1852 144.087 34.8035C143.702 35.4218 143.14 35.9104 142.474 36.2061L142.438 36.2225L142.37 36.2525L144.641 41.9533H142.646L140.483 36.5279H135.297C134.825 36.5279 134.371 36.7141 134.035 37.0462C133.699 37.3782 133.507 37.8294 133.501 38.3019V41.9607L131.655 41.9533Z" fill="black"/>
<path d="M148.618 29.2373V41.9533H146.765V29.2373H148.618Z" fill="black"/>
<path d="M150.728 29.2373H163.713V31.0907H150.728V29.2373ZM150.728 38.3109C150.731 37.5588 150.966 36.8259 151.4 36.2122C151.835 35.5984 152.449 35.1336 153.157 34.8812C153.546 34.7421 153.957 34.6712 154.37 34.6716H163.713V36.5279H154.37C153.897 36.5279 153.444 36.7141 153.107 37.0461C152.771 37.3782 152.579 37.8294 152.573 38.3019V38.3244C152.58 38.7967 152.772 39.2475 153.108 39.5792C153.444 39.911 153.898 40.097 154.37 40.0969H163.713V41.9503H154.37C153.874 41.9501 153.384 41.8482 152.93 41.6509L152.894 41.6359C152.18 41.3162 151.588 40.777 151.202 40.0969C150.892 39.5529 150.728 38.9374 150.728 38.3109Z" fill="black"/>
<path d="M167.897 35.2495C167.211 35.0047 166.632 34.5252 166.264 33.8957C165.896 33.2662 165.762 32.5269 165.886 31.8082C166.009 31.0896 166.383 30.4376 166.94 29.9673C167.497 29.4969 168.203 29.2384 168.932 29.2373H178.824V31.0907H168.932C168.64 31.0912 168.358 31.1942 168.135 31.3817C167.912 31.5693 167.761 31.8294 167.711 32.1165C167.66 32.4036 167.711 32.6995 167.857 32.9523C168.002 33.2051 168.232 33.3988 168.505 33.4994L168.531 33.5084L177.5 35.9127L177.585 35.9426C178.274 36.1858 178.854 36.6648 179.224 37.2949C179.593 37.9249 179.728 38.6653 179.604 39.3851C179.48 40.1049 179.106 40.7577 178.547 41.2279C177.988 41.6982 177.281 41.9557 176.55 41.9548H166.659V40.1014H176.55C176.842 40.1012 177.125 39.9985 177.348 39.811C177.572 39.6236 177.722 39.3635 177.773 39.0763C177.824 38.7891 177.773 38.4931 177.627 38.2401C177.482 37.9871 177.252 37.7933 176.979 37.6926L176.953 37.6837L167.983 35.2794L167.897 35.2495Z" fill="black"/>
<path d="M34.7765 48.5342L21.8211 50.0013C21.7346 50.011 21.6472 50.0024 21.5643 49.976C21.4815 49.9495 21.4052 49.9059 21.3403 49.848C21.2755 49.7901 21.2236 49.7191 21.188 49.6398C21.1524 49.5604 21.134 49.4745 21.1339 49.3875V34.2374C21.134 34.1444 21.155 34.0527 21.1954 33.9689C21.2359 33.8852 21.2947 33.8117 21.3675 33.7538L27.9096 28.5591C28.0285 28.4648 28.1781 28.4175 28.3296 28.4263C28.4812 28.4352 28.6242 28.4995 28.7314 28.607L37.0326 36.9081C37.3194 37.1967 37.4807 37.5867 37.4817 37.9935L37.5161 45.4518C37.5195 46.2129 37.2418 46.9484 36.7362 47.5173C36.2306 48.0861 35.5327 48.4483 34.7765 48.5342Z" fill="black"/>
<path d="M31.2136 6.84023V21.1685C31.2137 21.6334 31.1087 22.0924 30.9065 22.511C30.7043 22.9297 30.4101 23.2973 30.0459 23.5862L22.1354 29.8739C22.0444 29.9458 21.935 29.9906 21.8197 30.0033C21.7044 30.0159 21.5878 29.9959 21.4834 29.9455C21.3789 29.895 21.2907 29.8162 21.2289 29.7181C21.1671 29.6199 21.1342 29.5063 21.1339 29.3903V3.72936C21.1339 3.58758 21.1664 3.44769 21.2289 3.32042C21.2914 3.19315 21.3822 3.08188 21.4943 2.99516C21.6065 2.90844 21.737 2.84856 21.8759 2.82013C22.0148 2.79169 22.1584 2.79546 22.2956 2.83113L29.5997 4.74736C30.0623 4.86857 30.4717 5.13975 30.7637 5.51846C31.0557 5.89716 31.2139 6.36201 31.2136 6.84023Z" fill="black"/>
<path d="M37.534 6.86075V32.2867C37.5333 32.4077 37.4969 32.5259 37.4294 32.6264C37.362 32.7269 37.2664 32.8054 37.1547 32.852C37.043 32.8986 36.92 32.9113 36.8011 32.8885C36.6822 32.8657 36.5727 32.8084 36.4861 32.7238L30.8542 27.0964C30.7925 27.0349 30.7444 26.9611 30.7133 26.8797C30.6822 26.7983 30.6687 26.7113 30.6736 26.6243C30.6786 26.5373 30.7019 26.4523 30.742 26.375C30.7822 26.2977 30.8383 26.2298 30.9066 26.1757L32.0249 25.2894C32.5714 24.8554 33.0129 24.3037 33.3167 23.6754C33.6205 23.0472 33.7786 22.3585 33.7794 21.6606V6.2754C33.7794 3.40107 31.2135 2.80225 31.2135 2.80225L35.2346 3.87563C35.8935 4.04974 36.4764 4.43693 36.8923 4.97688C37.3082 5.51682 37.5339 6.17918 37.534 6.86075Z" fill="black"/>
<path d="M21.3958 0.252758C21.2327 0.24677 18.5634 0.14048 18.5634 3.63011V48.9533C18.5634 49.0423 18.5441 49.1303 18.5069 49.2111C18.4697 49.292 18.4155 49.3639 18.348 49.4219C18.2805 49.4798 18.2013 49.5226 18.1157 49.5471C18.0302 49.5717 17.9403 49.5775 17.8523 49.5641L3.92527 47.4173C2.83242 47.2486 1.83598 46.6945 1.11607 45.8552C0.396157 45.0159 0.000280733 43.9467 0 42.8409L0 11.3474C6.61966e-05 10.4417 0.265736 9.55594 0.764121 8.79971C1.26251 8.04349 1.97172 7.45002 2.80398 7.09278L18.5634 0.320126C19.2779 -0.0173432 20.0886 -0.091573 20.8524 0.110538L21.3958 0.252758Z" fill="black"/>
</g>
<defs>
<clipPath id="clip0_55_28">
<rect width="179.646" height="50" fill="white"/>
</clipPath>
</defs>
</svg>
