<svg width="196" height="260" viewBox="0 0 196 260" fill="none" xmlns="http://www.w3.org/2000/svg">
<path d="M181.175 252.357L113.681 259.985C113.231 260.036 112.775 259.991 112.343 259.853C111.912 259.716 111.514 259.489 111.176 259.188C110.838 258.887 110.568 258.518 110.383 258.106C110.197 257.693 110.101 257.246 110.101 256.794V178.021C110.101 177.538 110.211 177.061 110.422 176.626C110.632 176.19 110.938 175.808 111.318 175.507L145.4 148.497C146.02 148.007 146.799 147.761 147.589 147.807C148.378 147.853 149.123 148.187 149.682 148.746L192.928 191.908C194.422 193.408 195.263 195.436 195.268 197.551L195.447 236.33C195.465 240.287 194.018 244.112 191.384 247.07C188.75 250.027 185.115 251.91 181.175 252.357Z" fill="black"/>
<path d="M162.613 35.5692V110.068C162.613 112.486 162.067 114.872 161.013 117.049C159.96 119.226 158.427 121.137 156.529 122.639L115.319 155.332C114.844 155.705 114.274 155.939 113.674 156.004C113.073 156.07 112.466 155.966 111.922 155.704C111.377 155.442 110.918 155.032 110.596 154.521C110.274 154.011 110.103 153.42 110.101 152.817V19.3944C110.101 18.6572 110.27 17.9299 110.596 17.2681C110.921 16.6064 111.394 16.0279 111.979 15.577C112.563 15.1261 113.243 14.8147 113.967 14.6669C114.69 14.5191 115.438 14.5386 116.153 14.7241L154.205 24.6874C156.615 25.3177 158.748 26.7277 160.269 28.6967C161.791 30.6658 162.615 33.0828 162.613 35.5692Z" fill="black"/>
<path d="M195.541 35.6782V167.879C195.537 168.508 195.348 169.123 194.996 169.646C194.645 170.168 194.147 170.576 193.565 170.818C192.983 171.061 192.342 171.127 191.723 171.008C191.103 170.89 190.533 170.592 190.082 170.152L160.741 140.892C160.419 140.573 160.169 140.189 160.007 139.766C159.845 139.343 159.774 138.89 159.8 138.438C159.826 137.985 159.948 137.544 160.157 137.142C160.366 136.74 160.658 136.387 161.014 136.105L166.84 131.497C169.687 129.241 171.987 126.372 173.57 123.105C175.153 119.839 175.977 116.258 175.981 112.629V32.6347C175.981 17.6897 162.613 14.5762 162.613 14.5762L183.561 20.1572C186.994 21.0625 190.031 23.0757 192.198 25.8831C194.365 28.6905 195.54 32.1344 195.541 35.6782Z" fill="black"/>
<path d="M111.466 1.31928C110.616 1.28815 96.7098 0.735495 96.7098 18.8796V254.536C96.7095 254.998 96.609 255.456 96.4153 255.876C96.2217 256.296 95.9393 256.67 95.5876 256.972C95.2358 257.273 94.823 257.495 94.3774 257.623C93.9317 257.751 93.4636 257.781 93.0052 257.711L20.4495 246.549C14.756 245.672 9.56489 242.791 5.81437 238.427C2.06386 234.063 0.00146253 228.504 0 222.754L0 59.0054C0.000344864 54.2963 1.3844 49.6907 3.98084 45.7588C6.57727 41.8268 10.2721 38.7411 14.6079 36.8837L96.7098 1.66956C100.432 -0.0850978 104.655 -0.471052 108.635 0.579817L111.466 1.31928Z" fill="black"/>
</svg>
